<svg width="58" height="58" viewBox="0 0 58 58" fill="none" xmlns="http://www.w3.org/2000/svg">
<path d="M36.279 17.9686L47.4241 10.9177L36.5064 0L29.4555 15.6941L25.3614 3.41175L14.4437 10.6902L23.5417 17.9686H2.84375V32.5255H6.48296V58H51.5182V32.5255H55.1574V17.9686H36.279ZM37.4272 4.7807L43.14 10.4935L31.4868 17.8831L37.4272 4.7807ZM23.902 7.66499L27.1277 17.3421L19.0634 10.8907L23.902 7.66499ZM25.3614 54.3608H10.1222V31.3855H25.3614V54.3608ZM25.3614 28.8862H6.48296V21.6079H25.3614V28.8862ZM47.879 54.3608H32.6398V31.3855H47.879V54.3608ZM51.5182 28.8862H32.6398V21.6079H51.5182V28.8862Z" fill="#FFE920"/>
</svg>
