<svg width="212" height="20" viewBox="0 0 212 20" fill="none" xmlns="http://www.w3.org/2000/svg">
<path d="M0 20V13.4332C0.903153 13.3 1.58478 12.9255 2.04488 12.3096C2.52201 11.6937 2.87135 10.4952 3.09287 8.71411L4.11531 0.274656H16.8191V13.1835H18.3528V20H13.9307V16.9288H4.39648V20H0ZM7.46379 9.0387C7.24227 10.8032 6.62028 12.1848 5.59785 13.1835H12.4226V4.01998H8.07726L7.46379 9.0387Z" fill="#157DFB"/>
<path d="M35.7255 14.8065C34.0044 16.4211 31.8317 17.2285 29.2075 17.2285C26.5832 17.2285 24.402 16.4211 22.6639 14.8065C20.9428 13.1918 20.0822 11.1278 20.0822 8.61423C20.0822 6.10071 20.9428 4.03662 22.6639 2.42197C24.402 0.807324 26.5832 0 29.2075 0C31.8317 0 34.0044 0.807324 35.7255 2.42197C37.4466 4.03662 38.3072 6.10071 38.3072 8.61423C38.3072 11.1278 37.4466 13.1918 35.7255 14.8065ZM29.2075 13.4332C30.5878 13.4332 31.7039 12.9754 32.556 12.0599C33.408 11.1444 33.834 9.99584 33.834 8.61423C33.834 7.23263 33.408 6.08406 32.556 5.16854C31.7039 4.25302 30.5878 3.79526 29.2075 3.79526C27.8101 3.79526 26.6855 4.25302 25.8334 5.16854C24.9814 6.08406 24.5554 7.23263 24.5554 8.61423C24.5554 9.99584 24.9814 11.1444 25.8334 12.0599C26.6855 12.9754 27.8101 13.4332 29.2075 13.4332Z" fill="#157DFB"/>
<path d="M41.2314 0.274656H54.5487V4.01998H45.6279V6.16729H49.9221C51.7284 6.16729 53.1428 6.68331 54.1652 7.71536C55.1877 8.73075 55.6989 10.0042 55.6989 11.5356C55.6989 13.067 55.1877 14.3487 54.1652 15.3808C53.1428 16.4128 51.7284 16.9288 49.9221 16.9288H41.2314V0.274656ZM49.3853 9.91261H45.6279V13.1835H49.3853C49.9306 13.1835 50.3737 13.042 50.7145 12.7591C51.0553 12.4594 51.2257 12.0516 51.2257 11.5356C51.2257 11.0362 51.0553 10.645 50.7145 10.362C50.3737 10.0624 49.9306 9.91261 49.3853 9.91261Z" fill="#157DFB"/>
<path d="M62.7628 16.9288H58.3663V0.274656H66.9037C68.7441 0.274656 70.1925 0.807324 71.249 1.87266C72.3056 2.92135 72.8338 4.23637 72.8338 5.81773C72.8338 7.38244 72.3056 8.69746 71.249 9.7628C70.1925 10.8115 68.7441 11.3358 66.9037 11.3358H62.7628V16.9288ZM66.3158 7.59051C66.9122 7.59051 67.3979 7.43238 67.7728 7.11611C68.1647 6.79983 68.3607 6.36704 68.3607 5.81773C68.3607 5.25177 68.1647 4.81065 67.7728 4.49438C67.3979 4.17811 66.9122 4.01998 66.3158 4.01998H62.7628V7.59051H66.3158Z" fill="#157DFB"/>
<path d="M90.2755 14.8065C88.5544 16.4211 86.3817 17.2285 83.7574 17.2285C81.1332 17.2285 78.952 16.4211 77.2138 14.8065C75.4927 13.1918 74.6322 11.1278 74.6322 8.61423C74.6322 6.10071 75.4927 4.03662 77.2138 2.42197C78.952 0.807324 81.1332 0 83.7574 0C86.3817 0 88.5544 0.807324 90.2755 2.42197C91.9966 4.03662 92.8571 6.10071 92.8571 8.61423C92.8571 11.1278 91.9966 13.1918 90.2755 14.8065ZM83.7574 13.4332C85.1377 13.4332 86.2539 12.9754 87.1059 12.0599C87.958 11.1444 88.384 9.99584 88.384 8.61423C88.384 7.23263 87.958 6.08406 87.1059 5.16854C86.2539 4.25302 85.1377 3.79526 83.7574 3.79526C82.3601 3.79526 81.2354 4.25302 80.3834 5.16854C79.5314 6.08406 79.1054 7.23263 79.1054 8.61423C79.1054 9.99584 79.5314 11.1444 80.3834 12.0599C81.2354 12.9754 82.3601 13.4332 83.7574 13.4332Z" fill="#157DFB"/>
<path d="M152.535 14.7329C150.826 16.3395 148.668 17.1429 146.062 17.1429C143.456 17.1429 141.29 16.3395 139.564 14.7329C137.855 13.1263 137 11.0725 137 8.57143C137 6.07039 137.855 4.01656 139.564 2.40994C141.29 0.803313 143.456 0 146.062 0C148.668 0 150.826 0.803313 152.535 2.40994C154.244 4.01656 155.099 6.07039 155.099 8.57143C155.099 11.0725 154.244 13.1263 152.535 14.7329ZM146.062 13.3665C147.433 13.3665 148.541 12.911 149.387 12C150.234 11.089 150.657 9.94617 150.657 8.57143C150.657 7.19669 150.234 6.05383 149.387 5.14286C148.541 4.23188 147.433 3.7764 146.062 3.7764C144.674 3.7764 143.558 4.23188 142.711 5.14286C141.865 6.05383 141.442 7.19669 141.442 8.57143C141.442 9.94617 141.865 11.089 142.711 12C143.558 12.911 144.674 13.3665 146.062 13.3665Z" fill="#157DFB"/>
<path d="M173.309 16.8447H167.953L163.511 10.6087L162.369 12V16.8447H158.003V0.273291H162.369V7.08075L167.573 0.273291H172.954L166.38 8.02485L173.309 16.8447Z" fill="#157DFB"/>
<path d="M191.08 16.8447H186.714V10.1863H179.683V16.8447H175.317V0.273291H179.683V6.45963H186.714V0.273291H191.08V16.8447Z" fill="#157DFB"/>
<path d="M211.286 16.8447H206.336L205.498 14.4596H198.822L197.984 16.8447H193.035L199.406 0.273291H204.889L211.286 16.8447ZM204.305 10.7329L202.147 4.49689L199.99 10.7329H204.305Z" fill="#157DFB"/>
<path d="M99.869 12.8572H97.6054V6.21337H95.1445V4.28577H102.317V6.21337H99.869V12.8572Z" fill="#5C5C5C"/>
<path d="M112.298 12.8572H110.034V9.4132H106.389V12.8572H104.125V4.28577H106.389V7.4856H110.034V4.28577H112.298V12.8572Z" fill="#5C5C5C"/>
<path d="M114.611 4.28577H116.874V7.16433H119.006C119.954 7.16433 120.699 7.43848 121.243 7.98677C121.787 8.5265 122.059 9.19902 122.059 10.0043C122.059 10.8182 121.787 11.4993 121.243 12.0476C120.699 12.5873 119.954 12.8572 119.006 12.8572H114.611V4.28577ZM118.703 9.09194H116.874V10.9296H118.703C119.01 10.9296 119.26 10.8482 119.453 10.6854C119.655 10.5226 119.756 10.2956 119.756 10.0043C119.756 9.72162 119.655 9.49887 119.453 9.3361C119.26 9.17332 119.01 9.09194 118.703 9.09194ZM124.967 12.8572H122.704V4.28577H124.967V12.8572Z" fill="#5C5C5C"/>
<path d="M133.716 12.8572H127.281V4.28577H133.716V6.21337H129.544V7.54985H133.624V9.47746H129.544V10.9296H133.716V12.8572Z" fill="#5C5C5C"/>
</svg>
